<?xml version="1.0" encoding="UTF-8"?>
<svg xmlns="http://www.w3.org/2000/svg" xmlns:xlink="http://www.w3.org/1999/xlink" width="770px" height="500px" viewBox="0 0 77 50" version="1.1">
<g id="surface1">
<path style=" stroke:none;fill-rule:nonzero;fill:rgb(14.901961%,30.196078%,89.411765%);fill-opacity:1;" d="M 17.632812 50 L 3.214844 45.984375 L 0 9.828125 L 35.308594 9.828125 L 32.09375 45.976562 Z M 17.632812 50 "/>
<path style=" stroke:none;fill-rule:nonzero;fill:rgb(16.078431%,39.607843%,94.509804%);fill-opacity:1;" d="M 29.339844 43.675781 L 32.089844 12.78125 L 17.65625 12.78125 L 17.65625 46.925781 Z M 29.339844 43.675781 "/>
<path style=" stroke:none;fill-rule:nonzero;fill:rgb(92.156863%,92.156863%,92.156863%);fill-opacity:1;" d="M 7.367188 26.191406 L 7.761719 30.628906 L 17.65625 30.628906 L 17.65625 26.191406 Z M 7.367188 26.191406 "/>
<path style=" stroke:none;fill-rule:nonzero;fill:rgb(92.156863%,92.156863%,92.156863%);fill-opacity:1;" d="M 6.570312 17.21875 L 6.972656 21.652344 L 17.65625 21.652344 L 17.65625 17.21875 Z M 6.570312 17.21875 "/>
<path style=" stroke:none;fill-rule:nonzero;fill:rgb(92.156863%,92.156863%,92.156863%);fill-opacity:1;" d="M 17.65625 37.710938 L 17.636719 37.714844 L 12.710938 36.382812 L 12.398438 32.84375 L 7.960938 32.84375 L 8.578125 39.808594 L 17.636719 42.328125 L 17.65625 42.324219 Z M 17.65625 37.710938 "/>
<path style=" stroke:none;fill-rule:nonzero;fill:rgb(0%,0%,0%);fill-opacity:1;" d="M 8.308594 0 L 13.664062 0 L 13.664062 2.246094 L 10.550781 2.246094 L 10.550781 4.492188 L 13.664062 4.492188 L 13.664062 6.738281 L 8.308594 6.738281 Z M 8.308594 0 "/>
<path style=" stroke:none;fill-rule:nonzero;fill:rgb(0%,0%,0%);fill-opacity:1;" d="M 14.734375 0 L 20.089844 0 L 20.089844 1.953125 L 16.972656 1.953125 L 16.972656 2.34375 L 20.089844 2.34375 L 20.089844 6.835938 L 14.734375 6.835938 L 14.734375 4.785156 L 17.851562 4.785156 L 17.851562 4.394531 L 14.734375 4.394531 Z M 14.734375 0 "/>
<path style=" stroke:none;fill-rule:nonzero;fill:rgb(0%,0%,0%);fill-opacity:1;" d="M 21.160156 0 L 26.511719 0 L 26.511719 1.953125 L 23.398438 1.953125 L 23.398438 2.34375 L 26.511719 2.34375 L 26.511719 6.835938 L 21.160156 6.835938 L 21.160156 4.785156 L 24.273438 4.785156 L 24.273438 4.394531 L 21.160156 4.394531 Z M 21.160156 0 "/>
<path style=" stroke:none;fill-rule:nonzero;fill:rgb(100%,100%,100%);fill-opacity:1;" d="M 27.914062 26.191406 L 28.714844 17.21875 L 17.640625 17.21875 L 17.640625 21.652344 L 23.867188 21.652344 L 23.464844 26.191406 L 17.640625 26.191406 L 17.640625 30.628906 L 23.082031 30.628906 L 22.570312 36.378906 L 17.640625 37.714844 L 17.640625 42.328125 L 26.703125 39.808594 L 26.769531 39.058594 L 27.808594 27.382812 Z M 27.914062 26.191406 "/>
<path style=" stroke:none;fill-rule:nonzero;fill:rgb(89.411765%,30.196078%,14.901961%);fill-opacity:1;" d="M 77.03125 9.828125 L 73.8125 45.976562 L 59.351562 50 L 44.933594 45.984375 L 41.71875 9.828125 Z M 77.03125 9.828125 "/>
<path style=" stroke:none;fill-rule:nonzero;fill:rgb(94.509804%,39.607843%,16.078431%);fill-opacity:1;" d="M 59.375 46.925781 L 71.058594 43.675781 L 73.808594 12.78125 L 59.375 12.78125 Z M 59.375 46.925781 "/>
<path style=" stroke:none;fill-rule:nonzero;fill:rgb(92.156863%,92.156863%,92.156863%);fill-opacity:1;" d="M 53.121094 21.652344 L 59.375 21.652344 L 59.375 17.21875 L 48.289062 17.21875 L 48.394531 18.40625 L 49.480469 30.628906 L 59.375 30.628906 L 59.375 26.191406 L 53.523438 26.191406 Z M 53.121094 21.652344 "/>
<path style=" stroke:none;fill-rule:nonzero;fill:rgb(92.156863%,92.156863%,92.156863%);fill-opacity:1;" d="M 54.117188 32.84375 L 49.679688 32.84375 L 50.300781 39.808594 L 59.355469 42.328125 L 59.375 42.324219 L 59.375 37.710938 L 59.355469 37.714844 L 54.433594 36.382812 Z M 54.117188 32.84375 "/>
<path style=" stroke:none;fill-rule:nonzero;fill:rgb(0%,0%,0%);fill-opacity:1;" d="M 45.003906 0 L 47.25 0 L 47.25 2.226562 L 49.304688 2.226562 L 49.304688 0 L 51.550781 0 L 51.550781 6.742188 L 49.304688 6.742188 L 49.304688 4.484375 L 47.25 4.484375 L 47.25 6.742188 L 45.003906 6.742188 Z M 45.003906 0 "/>
<path style=" stroke:none;fill-rule:nonzero;fill:rgb(0%,0%,0%);fill-opacity:1;" d="M 54.507812 2.234375 L 52.527344 2.234375 L 52.527344 0 L 58.730469 0 L 58.730469 2.234375 L 56.753906 2.234375 L 56.753906 6.742188 L 54.507812 6.742188 Z M 54.507812 2.234375 "/>
<path style=" stroke:none;fill-rule:nonzero;fill:rgb(0%,0%,0%);fill-opacity:1;" d="M 59.714844 0 L 62.058594 0 L 63.5 2.367188 L 64.9375 0 L 67.28125 0 L 67.28125 6.742188 L 65.046875 6.742188 L 65.046875 3.402344 L 63.5 5.796875 L 63.460938 5.796875 L 61.914062 3.402344 L 61.914062 6.742188 L 59.714844 6.742188 Z M 59.714844 0 "/>
<path style=" stroke:none;fill-rule:nonzero;fill:rgb(0%,0%,0%);fill-opacity:1;" d="M 68.398438 0 L 70.648438 0 L 70.648438 4.515625 L 73.804688 4.515625 L 73.804688 6.742188 L 68.398438 6.742188 Z M 68.398438 0 "/>
<path style=" stroke:none;fill-rule:nonzero;fill:rgb(100%,100%,100%);fill-opacity:1;" d="M 59.359375 30.628906 L 64.800781 30.628906 L 64.289062 36.378906 L 59.359375 37.714844 L 59.359375 42.328125 L 68.421875 39.808594 L 68.488281 39.058594 L 69.527344 27.382812 L 69.632812 26.191406 L 59.359375 26.191406 Z M 59.359375 30.628906 "/>
<path style=" stroke:none;fill-rule:nonzero;fill:rgb(100%,100%,100%);fill-opacity:1;" d="M 59.359375 21.640625 L 59.359375 21.652344 L 70.035156 21.652344 L 70.125 20.65625 L 70.328125 18.40625 L 70.433594 17.21875 L 59.359375 17.21875 Z M 59.359375 21.640625 "/>
</g>
</svg>
